<svg id="menu" xmlns="http://www.w3.org/2000/svg" width="28" height="21" viewBox="0 0 28 21">
  <metadata><?xpacket begin="﻿" id="W5M0MpCehiHzreSzNTczkc9d"?>
<x:xmpmeta xmlns:x="adobe:ns:meta/" x:xmptk="Adobe XMP Core 5.6-c142 79.160924, 2017/07/13-01:06:39        ">
   <rdf:RDF xmlns:rdf="http://www.w3.org/1999/02/22-rdf-syntax-ns#">
      <rdf:Description rdf:about=""/>
   </rdf:RDF>
</x:xmpmeta>
                                                                                                    
                                                                                                    
                                                                                                    
                                                                                                    
                                                                                                    
                                                                                                    
                                                                                                    
                                                                                                    
                                                                                                    
                                                                                                    
                                                                                                    
                                                                                                    
                                                                                                    
                                                                                                    
                                                                                                    
                                                                                                    
                                                                                                    
                                                                                                    
                                                                                                    
                                                                                                    
                           
<?xpacket end="w"?></metadata>
<defs>
    <style>
      .cls-1 {
        fill: #b99403;
        fill-rule: evenodd;
      }
    </style>
  </defs>
  <path class="cls-1" d="M27.693,20.183l-9.656-9.656,7.146-7.146,2.532-2.532a1.7,1.7,0,0,1,.285.9v17.5A1.7,1.7,0,0,1,27.693,20.183ZM24.564,2.763L21.3,6.022l-6.237,6.237-1.095,1.095L3.436,2.817l-1.75-1.75-0.8-.8A1.7,1.7,0,0,1,1.75,0h24.5a1.7,1.7,0,0,1,.835.241L26.2,1.122ZM1.067,1.686L9.881,10.5,0.263,20.118A1.7,1.7,0,0,1,0,19.25V1.75A1.7,1.7,0,0,1,.263.882l0.8,0.8h0ZM10.5,11.119l0.369,0.369L11,11.62l1.2,1.2,1.75,1.75,0.073-.073,0.018,0.018,1.64-1.64,1.732-1.732,9.635,9.635a1.706,1.706,0,0,1-.8.22H1.75a1.7,1.7,0,0,1-.868-0.263Z"/>
</svg>
