<svg id="menu" xmlns="http://www.w3.org/2000/svg" width="40" height="39" viewBox="0 0 40 39">
  <metadata><?xpacket begin="﻿" id="W5M0MpCehiHzreSzNTczkc9d"?>
<x:xmpmeta xmlns:x="adobe:ns:meta/" x:xmptk="Adobe XMP Core 5.6-c142 79.160924, 2017/07/13-01:06:39        ">
   <rdf:RDF xmlns:rdf="http://www.w3.org/1999/02/22-rdf-syntax-ns#">
      <rdf:Description rdf:about=""/>
   </rdf:RDF>
</x:xmpmeta>
                                                                                                    
                                                                                                    
                                                                                                    
                                                                                                    
                                                                                                    
                                                                                                    
                                                                                                    
                                                                                                    
                                                                                                    
                                                                                                    
                                                                                                    
                                                                                                    
                                                                                                    
                                                                                                    
                                                                                                    
                                                                                                    
                                                                                                    
                                                                                                    
                                                                                                    
                                                                                                    
                           
<?xpacket end="w"?></metadata>
<defs>
    <style>
      .cls-1, .cls-2 {
        fill: #f5c506;
        fill-rule: evenodd;
      }

      .cls-1 {
        opacity: 0.5;
      }
    </style>
  </defs>
  <g id="logo">
    <g>
      <path id="Shape_8_copy_4" data-name="Shape 8 copy 4" class="cls-1" d="M1.037,10.472l8.958-.335L9.934,1.306l3.825,3.6,0.06,8.831-8.958.335Zm5.8,5.469,8.957-.335-0.06-8.831,3.825,3.6,0.06,8.831-8.958.335ZM29.653,37.431L29.593,28.6l8.958-.335-3.825-3.6L25.768,25l0.061,8.831Zm-5.8-5.469-0.06-8.831,8.958-.335-3.825-3.6-8.958.335,0.061,8.831ZM28.825,0.89l0.34,8.825,8.964-.059-3.657,3.768-8.964.059-0.34-8.825ZM23.274,6.608l0.34,8.825,8.964-.059L28.92,19.142l-8.964.059-0.34-8.825ZM1.459,29.082l8.964-.059,0.34,8.825,3.658-3.768-0.34-8.825-8.964.06ZM7.01,23.363l8.964-.059,0.34,8.825,3.657-3.768-0.34-8.825-8.964.06Z"/>
      <path id="Shape_8_copy_3" data-name="Shape 8 copy 3" class="cls-2" d="M0,25.841L6.235,19.5,0,13.158H5.288L11.527,19.5,5.288,25.841H0Zm8.032,0L14.267,19.5,8.028,13.158H13.32L19.559,19.5,13.32,25.841H8.028Zm31.563,0L33.353,19.5l6.239-6.341H34.3L28.06,19.5,34.3,25.841h5.292Zm-8.032,0L25.321,19.5l6.239-6.341H26.268L20.029,19.5l6.239,6.341H31.56ZM13.357,0l6.437,6.146L26.231,0V5.21l-6.437,6.147L13.357,5.21V0Zm0,7.912,6.437,6.146,6.437-6.146v5.213l-6.437,6.147-6.437-6.147V7.909Zm0,31.095,6.437-6.146L26.231,39V33.79l-6.437-6.147L13.357,33.79V39Zm0-7.912,6.437-6.146,6.437,6.146V25.878l-6.437-6.147-6.437,6.147v5.213Z"/>
    </g>
  </g>
</svg>
