<svg id="menu" xmlns="http://www.w3.org/2000/svg" width="22" height="22" viewBox="0 0 22 22">
  <metadata><?xpacket begin="﻿" id="W5M0MpCehiHzreSzNTczkc9d"?>
<x:xmpmeta xmlns:x="adobe:ns:meta/" x:xmptk="Adobe XMP Core 5.6-c142 79.160924, 2017/07/13-01:06:39        ">
   <rdf:RDF xmlns:rdf="http://www.w3.org/1999/02/22-rdf-syntax-ns#">
      <rdf:Description rdf:about=""/>
   </rdf:RDF>
</x:xmpmeta>
                                                                                                    
                                                                                                    
                                                                                                    
                                                                                                    
                                                                                                    
                                                                                                    
                                                                                                    
                                                                                                    
                                                                                                    
                                                                                                    
                                                                                                    
                                                                                                    
                                                                                                    
                                                                                                    
                                                                                                    
                                                                                                    
                                                                                                    
                                                                                                    
                                                                                                    
                                                                                                    
                           
<?xpacket end="w"?></metadata>
<defs>
    <style>
      .cls-1 {
        fill: #b99403;
        fill-rule: evenodd;
      }
    </style>
  </defs>
  <path class="cls-1" d="M16.162,1.828a2.83,2.83,0,0,0,4.006,4L21.79,4.208A5.589,5.589,0,0,1,22,5.654a5.594,5.594,0,0,1-7.132,5.439c-0.016.016-.021,0.039-0.037,0.055l-10.016,10a2.83,2.83,0,0,1-4.006-4l10.016-10c0.017-.017.04-0.022,0.058-0.038a5.588,5.588,0,0,1-.214-1.458A5.6,5.6,0,0,1,17.783.21ZM2.877,18.377a0.707,0.707,0,1,0,.708.707A0.708,0.708,0,0,0,2.877,18.377Z"/>
</svg>
