<svg id="twitter" xmlns="http://www.w3.org/2000/svg" width="159" height="133" viewBox="0 0 159 133">
  <metadata><?xpacket begin="﻿" id="W5M0MpCehiHzreSzNTczkc9d"?>
<x:xmpmeta xmlns:x="adobe:ns:meta/" x:xmptk="Adobe XMP Core 5.6-c142 79.160924, 2017/07/13-01:06:39        ">
   <rdf:RDF xmlns:rdf="http://www.w3.org/1999/02/22-rdf-syntax-ns#">
      <rdf:Description rdf:about=""/>
   </rdf:RDF>
</x:xmpmeta>
                                                                                                    
                                                                                                    
                                                                                                    
                                                                                                    
                                                                                                    
                                                                                                    
                                                                                                    
                                                                                                    
                                                                                                    
                                                                                                    
                                                                                                    
                                                                                                    
                                                                                                    
                                                                                                    
                                                                                                    
                                                                                                    
                                                                                                    
                                                                                                    
                                                                                                    
                                                                                                    
                           
<?xpacket end="w"?></metadata>
<defs>
    <style>
      .cls-1 {
        fill: #bc7d00;
        fill-opacity: 0.9;
        fill-rule: evenodd;
      }
    </style>
  </defs>
  <path id="twitter-2" data-name="twitter" class="cls-1" d="M158.522,15.313L143.705,30.626v2.553a33.979,33.979,0,0,1-1.067,8.068c-0.345,21.066-6.838,49-33.506,71.051C56.676,155.668.476,117.4,0.476,117.4c44.45,0,44.45-15.314,44.45-15.314-9.878,0-29.633-20.417-29.633-20.417,4.939,5.1,14.817,0,14.817,0-24.7-15.314-24.7-30.627-24.7-30.627,4.939,5.1,14.817,0,14.817,0C-4.463,30.626,10.354,5.1,10.354,5.1,15.293,30.626,79.5,40.835,79.5,40.835l0.817-.422a62.5,62.5,0,0,1-.817-9.787C79.5,12.3,93.872,0,111.6,0a31.484,31.484,0,0,1,24.281,11.7l2.883-1.49L153.583,0l-9.878,20.418Z"/>
</svg>
